# xmcd CD database file
#
# Track frame offsets:
#	165
#	15447
#	27402
#	40730
#	53527
#	65580
#	79887
#	90457
#	103022
#	117850
#	132337
#	144785
#	156507
#	171482
#	183187
#	197002
#	211332
#	223230
#	238650
#	250325
#
# Disc length: 3522 seconds
#
# Revision: 0
# Processed by: cddbd v1.5PL3 Copyright (c) Steve Scherf et al.
# Submitted via: CDex 1.51
#
DISCID=180dc014
DTITLE=Jolson, Al - Great Original Performances 1926-1932
DYEAR=1900
DGENRE=Jazz
TTITLE0=Rock-a-bye your baby with a dixie melody
TTITLE1=At peace with the world
TTITLE2=Tonight's my night with baby
TTITLE3=Here I am
TTITLE4=When the red, red robin comes bob, bob bobbin' along
TTITLE5=Four walls
TTITLE6=Blue river
TTITLE7=Mother of mine, I still have you
TTITLE8=My mammy
TTITLE9=Dirty hands, dirty face
TTITLE10=There's a rainbow 'round my shoulder
TTITLE11=Golden gate
TTITLE12=Sonny boy
TTITLE13=I'm in seventh heaven
TTITLE14=Back in your own backyard
TTITLE15=Little pal
TTITLE16=Let me sing and I'm happy
TTITLE17=You are too beautiful
TTITLE18=Hallelujah I'm a bum
TTITLE19=April showers
EXTD=
EXTT0=
EXTT1=
EXTT2=
EXTT3=
EXTT4=
EXTT5=
EXTT6=
EXTT7=
EXTT8=
EXTT9=
EXTT10=
EXTT11=
EXTT12=
EXTT13=
EXTT14=
EXTT15=
EXTT16=
EXTT17=
EXTT18=
EXTT19=
PLAYORDER=
